<?xml version="1.0" encoding="utf-8"?>
<!-- Generator: Adobe Illustrator 18.1.1, SVG Export Plug-In . SVG Version: 6.00 Build 0)  -->
<svg version="1.1" id="Layer_1" xmlns="http://www.w3.org/2000/svg" xmlns:xlink="http://www.w3.org/1999/xlink" x="0px" y="0px"
	 width="335px" height="125px" viewBox="0 0 335 125" enable-background="new 0 0 335 125" xml:space="preserve">
<g id="business">
	<g id="fat">
		<path fill="none" stroke="#FF7C54" stroke-width="11.3278" stroke-linejoin="bevel" stroke-miterlimit="10" stroke-dasharray="500 500" stroke-dashoffset="500" d="M129.3,5.2
			c0,0-19.9,18.5-65,8.9c-41.8-8.9-52.7,1.1-55,24.1C6.9,62.5,13,108.6,47.2,98.2c22.8-7,20.2-36.4,5.7-46.4 c-10.3-7.1-22.5-4.4-31.4,5.7">
            <animate attributeName="stroke-dashoffset" from="500" to="0" begin="1s" dur="1s" fill="freeze"/>
        </path>
		<path fill="none" stroke="#FF7C54" stroke-width="11.3278" stroke-linejoin="bevel" stroke-miterlimit="10" d="M77.8,29.3 c0,0-2.7,39,0.4,54.8c3.2,15.8,13.9,13,20.3,4.9c8.9-11.1,20.4-59.7,20.4-59.7s-5.8,44.1-4.7,56.3c1.1,11.8,9.3,13.6,9.3,13.6" stroke-dasharray="500 500" stroke-dashoffset="500">
            <animate attributeName="stroke-dashoffset" from="500" to="0" begin="1s" dur="1s" fill="freeze"/></path>
		<path fill="none" stroke="#FF7C54" stroke-width="11.3278" stroke-linejoin="bevel" stroke-miterlimit="10" d="M134.9,28.7
			c0,0,4.8-19.3,21.6-16.7c13.7,2.1,14.1,14.4,10.9,21.6c-5.2,11.6-27.6,15.5-27.6,15.5s20-6.2,30.6,8s9.8,49.6-8.2,57
			c-20.5,8.5-32.9-11.5-26-29.3c5.1-13.2,16.8-20.5,47.2-21.7c17.9-0.7,31.4,1.2,55.3-5.4c35.8-9.8,28.5-30.3,23.7-36
			c-4.8-5.7-22.7-4-28.5,23.3c-4.6,21.4,1.3,43.7,17.5,49.8S276,79.2,270,66.3" stroke-dasharray="800 800" stroke-dashoffset="800">
            <animate attributeName="stroke-dashoffset" from="800" to="0" begin="1s" dur="1s" fill="freeze"/></path>
		<path fill="none" stroke="#FF7C54" stroke-width="11.3278" stroke-linejoin="bevel" stroke-miterlimit="10" d="M194.1,24.3
			c0,0-4.1,48-2.4,74.4" stroke-dasharray="500 500" stroke-dashoffset="500">
            <animate attributeName="stroke-dashoffset" from="500" to="0" begin="1s" dur="1s" fill="freeze"/></path>
		<path fill="none" stroke="#FF7C54" stroke-width="11.3278" stroke-linejoin="bevel" stroke-miterlimit="10" d="M314,42
			c0,0,3.1-9.6-2.8-15.5s-24.6-2.2-27.5,26.7c-2.6,26.3,8.6,42.2,26,39.7c17.4-2.5,14.7-25.6,14.7-25.6" stroke-dasharray="500 500" stroke-dashoffset="500">
            <animate attributeName="stroke-dashoffset" from="500" to="0" begin="1s" dur="1s" fill="freeze"/></path>
		<path fill="none" stroke="#FF7C54" stroke-width="11.3278" stroke-linejoin="bevel" stroke-miterlimit="10" d="M220.5,16.7
			c0,0-4.5,28.5-1.8,53.8s6.9,30,6.9,30" stroke-dasharray="500 500" stroke-dashoffset="500">
            <animate attributeName="stroke-dashoffset" from="500" to="0" begin="1s" dur="1s" fill="freeze"/></path>
	</g>
	<g id="outline" opacity="0">
		<path fill="none" stroke="#FF7C54" stroke-width="0.8091" stroke-miterlimit="10" d="M31.1,90.9C15.4,78.4,15.6,51.1,16.8,38.7
			C17.8,27.3,22.5,23,27.1,21c4.7-2.1,11.3-3,29.4,0.2c25.4,4.6,52.5,7.3,76-8.4"/>
		<path fill="none" stroke="#FF7C54" stroke-width="0.8091" stroke-miterlimit="10" d="M24.7,104.9c0,0,17,8.3,33.6-3.1
			C72.2,92.3,71.6,79.9,72,75.9c0.4-4,0.1-17.3-10.1-26.7"/>
		<path fill="none" stroke="#FF7C54" stroke-width="0.8091" stroke-miterlimit="10" d="M18.4,56.6l7.7,7.7c0,0,5-8.8,14-8.8
			c7.2,0,11.5,5.6,11.5,5.6"/>
		<path fill="none" stroke="#FF7C54" stroke-width="0.8091" stroke-miterlimit="10" d="M84.9,31.3c0,0-2,29-0.5,43.6
			c1.5,15.2,5.4,15.2,5.4,15.2"/>
		<path fill="none" stroke="#FF7C54" stroke-width="0.8091" stroke-miterlimit="10" d="M81.2,101.3c0,0,8.5,5.4,18.3-3
			c3.4-2.9,6-6.2,7.9-9.4c0,0,0.8,8.5,7.9,14.1c5,4,8.2,4,8.2,4l2.1-11.4"/>
		<path fill="none" stroke="#FF7C54" stroke-width="0.8091" stroke-miterlimit="10" d="M126.1,35.8c0,0-3.5,31.1-3.8,41.2
			c-0.2,6.8-0.1,8.4,0.4,10.8"/>
		<path fill="none" stroke="#FF7C54" stroke-width="0.8091" stroke-miterlimit="10" d="M130.7,29.3l11,2.9c0,0,2.4-8.7,7.1-11.4
			c4.7-2.7,8-1.2,8-1.2"/>
		<path fill="none" stroke="#FF7C54" stroke-width="0.8091" stroke-miterlimit="10" d="M173.2,13.7c0,0,4.3,7.1,3.3,15
			s-4.3,13.5-11.3,18.5"/>
		<path fill="none" stroke="#FF7C54" stroke-width="0.8091" stroke-miterlimit="10" d="M143.1,55.9c0,0,12.2-3.5,20.9,4.6"/>
		<path fill="none" stroke="#FF7C54" stroke-width="0.8091" stroke-miterlimit="10" d="M217.8,69c-7,0.7-13.6,1.1-18.9,1.2
			c0,0-0.8,7.7,0.4,29.6l-11,1"/>
		<path fill="none" stroke="#FF7C54" stroke-width="0.8091" stroke-miterlimit="10" d="M232.5,67c-2.3,0.4-4.6,0.8-6.9,1.1
			c0,0,0.9,10.2,3.4,18.9c2.5,8.7,3.5,10.2,3.5,10.2s-6.1,4.4-7.9,6.5"/>
		<path fill="none" stroke="#FF7C54" stroke-width="0.8091" stroke-miterlimit="10" d="M269.6,19.5c2.9,3.1,5.5,13.1,3.7,19.3
			s-3.1,11.9-18.3,20.9c-3.8,2.2-8.8,4.1-14.6,5.5c0,0,1.1,10.9,6.1,16.7"/>
		<path fill="none" stroke="#FF7C54" stroke-width="0.8091" stroke-miterlimit="10" d="M144.4,102.8c0,0-5.6-10.6,2.2-20.8
			c4.6-6,15-9.2,25.9-10.5"/>
		<path fill="none" stroke="#FF7C54" stroke-width="0.8091" stroke-miterlimit="10" d="M137.9,119.4c0,0,16.6,12.1,34.1-2.3
			c15.7-12.9,13.1-39.6,11.3-46.5c3-0.1,5.7-0.2,8.2-0.2"/>
		<path fill="none" stroke="#FF7C54" stroke-width="0.8091" stroke-miterlimit="10" d="M240,53.2c0,0,1.5-13.6,6.8-20.5
			s10.2-7.5,12-7.8"/>
		<path fill="none" stroke="#FF7C54" stroke-width="0.8091" stroke-miterlimit="10" d="M201.4,26.6c0,0-1.5,22.5-2,33"/>
		<path fill="none" stroke="#FF7C54" stroke-width="0.8091" stroke-miterlimit="10" d="M227.9,19.5c0,0-3,22.7-2.8,37.4"/>
		<path fill="none" stroke="#FF7C54" stroke-width="0.8091" stroke-miterlimit="10" d="M249.4,102.1c0,0,14.1,5.6,23.9-7.1
			c9.5-12.4,5.5-28,5.5-28"/>
		<path fill="none" stroke="#FF7C54" stroke-width="0.8091" stroke-miterlimit="10" d="M309.4,32c0,0-6.2-2.6-12.2,4.5
			c-5.6,6.6-9.8,27.5-2.1,42.6"/>
		<path fill="none" stroke="#FF7C54" stroke-width="0.8091" stroke-miterlimit="10" d="M309.4,42.1l11.1,3.6c0,0,4.9-13.8-3.6-23.3"
			/>
		<path fill="none" stroke="#FF7C54" stroke-width="0.8091" stroke-miterlimit="10" d="M290.7,96.5c0,0,17.8,10.9,32.2-1.3
			c7-6,9.3-16.6,9.5-26.6"/>
        <animate attributeName="opacity" dur="0.5s" from="0" to="1" begin="2s" fill="freeze"/>
 	</g>
</g>
</svg>
