<?xml version="1.0" encoding="utf-8"?>
<!-- Generator: Adobe Illustrator 18.1.1, SVG Export Plug-In . SVG Version: 6.00 Build 0)  -->
<svg version="1.1" id="Layer_1" xmlns="http://www.w3.org/2000/svg" xmlns:xlink="http://www.w3.org/1999/xlink" x="0px" y="0px"
	 width="413.5px" height="86.5px" viewBox="0 0 413.5 86.5" enable-background="new 0 0 413.5 86.5" xml:space="preserve">
<g id="creative">
	<path fill="#00AEC2" d="M82.2,68.4l-2.5-1.9c0,0,0,0-0.6,1.1c-0.6,1.1-4.7,9.8-15.1,6.4C56,71.3,50.5,43.2,42.4,36.7
		c-6.7-5.3-8.4-4.9-8.4-4.9c2.1-1.6,4.6-4,8.1-8c8.4-9.8,13.6-12.2,17.5-12.6c4.6-0.5,8.7,4.8,9.4,4.7c4.5-0.7,6.8-8.3,0.4-11.4
		c-6.4-3.1-16.6,2-22.1,8.7C41.8,19.8,32.5,31,27,32.1c-1.4,0.3-2.6,0.2-3.6,0c0.1-9.1,0.4-16.9,0.6-19c0.5-5.5,8-5.5,8-5.5l0-1.4
		l-26.8,0l0,1.7c0,0,1.5,0.1,2.9,0.5c2.3,0.7,4,2,4.5,7.5c0.5,5.5,0.7,47.4-0.1,51.5s-7.4,3.9-7.4,3.9l0,1.8l27.6,0l0-2.4
		c0,0-7.6,0.2-8.8-4.3c-0.7-2.6-0.7-17.9-0.5-31.5c5.2,0.5,11.8,3.6,18.5,22c8.3,22.7,18.3,28.4,27.9,25.2
                                        C78.9,79.1,82.2,68.4,82.2,68.4z" opacity="0">
        <animate attributeName="opacity" from="0" to="1" dur="0.1s" begin="0s" fill="freeze"/>
    </path>
	<path fill="#00AEC2" d="M116.3,35c-8.8,7.1-17.5,3.6-17.5,3.6l0,2.4c0,0,14.9,5.5,25.4-2.5c10.6-8,6.6-29-8.5-32.1
		c-10.8-2.2-17.3-1.1-39.1-1.2l0,2.1c0,0,8.6,0.5,9.5,6.3c0.9,5.7,1.1,49.2,0.4,53.3c-0.7,3.7-3.1,6.4-6,7.1
		c-0.6,1.5-1.7,2.6-2.2,3.2l29.3,0l0-2.9c0,0-8.1,1.2-11.1-3.4c-2.8-4.2-0.9-63.5-0.9-63.5s12.4-1.8,19,2.5
		C122.1,14.8,124.4,28.4,116.3,35z" opacity="0">
        <animate attributeName="opacity" from="0" to="1" dur="0.1s" begin="0.2s" fill="freeze"/>
    </path>
	<path fill="#00AEC2" d="M143.9,74.3l0.2-33.4l16.9,0c4.3,0,5.5,3.5,5.5,4.6c0,1.1,0,2.5,0,2.5l1.6,0c0,0-0.5-4.5-0.5-9.2
		c0-4.6,0.5-8.3,0.5-8.3l-1.5,0c0,0,0,0,0,2.4c0,2.4-2.1,4.6-5.7,4.6l-16.8,0l-0.4-30c0,0,17.9,0,21.5,0s5.6,5.8,5.8,8.6l1.6,0
		l1.4-11.5l-48.6-0.1l0,1.6c0,0,5.2,0.1,7,3.3c1.8,3.2,2.1,10.5,2.1,25.6c0,15,1.1,36.8-3.2,38.3c-4.9,1.7-9.2,1.6-9.2,1.6l0,2.1
		l34.1,0c0-0.9,0-1.8,0-2.8C149.8,74.6,143.9,74.3,143.9,74.3z" opacity="0">
        <animate attributeName="opacity" from="0" to="1" dur="0.1s" begin="0.3s" fill="freeze"/>
    </path>
	<path fill="#00AEC2" d="M216,57.2c-2.8-7.6-19.5-50.6-21.2-54.4c-1.1,0-2.4,0.1-3.5,0C186.9,17.2,174,60,171.7,64.7
		c-2.7,5.7-5,9.3-12.5,9.6c-0.4,0-0.8,0-1.2,0.1c0,0.8,0,1.5,0.1,2.3c0,0.2,0,0.4,0,0.6l23.3,0l0-2.7c0,0-3.2-0.1-5.4-0.9
		c-1.6-0.6-2.1-2.7-1.7-4.3c1.2-4.9,2.8-10.8,3.9-14.6l26.2,0c2.3,6.3,4,11,4.4,12.1c1.4,3.6-0.9,6.4-3.6,7
		c-2.7,0.5-4.8,0.5-4.8,0.5l0,2.1l33.8,0c-0.1-0.8-0.1-1.7-0.1-2.6C222,74,220.6,69.9,216,57.2z M179,52.4c0.2-0.5,0.3-1.1,0.5-1.6
		c3.9-13.6,10.9-35.2,10.9-35.2s7.7,21.6,13.2,36.8L179,52.4z" opacity="0">
        <animate attributeName="opacity" from="0" to="1" dur="0.1s" begin="0.4s" fill="freeze"/>
    </path>
	<path fill="#00AEC2" d="M203.4,6.3l-0.1,11.2c0.6,1.2,2.1,4.9,2.1,4.9s1.8-10.9,6.3-12.1c4.5-1.2,21.6-0.9,21.6-0.9
		s-0.1,53.1-0.1,56.7c0,4.6-3.5,6.4-3.5,6.4c2.1,0.7,6.7,0.7,6.7,0.7s0.2,2.4,0.2,3.5l20,0c0-1.1,0-1.9,0-3c-1.6,0-3.9-0.3-5.5-0.4
		c-3.8-0.2-7.1-2-7.1-6.8c0-4.8,0.1-57,0.1-57s10.7,0,15,0c4.3,0,10.2,0.5,10.2,5.7c0,1.4,0,4.6,0.1,8.7c0.6,0,1.3,0,1.9,0
		c0,0,0,0,0,0c0.7-2.1,4.3-14.6,5.2-17.4L203.4,6.3z" opacity="0">
        <animate attributeName="opacity" from="0" to="1" dur="0.1s" begin="0.5s" fill="freeze"/>
    </path>
	<path fill="#00AEC2" d="M344.3,75.6c-4.1-0.1-7.8-0.6-9-2.3c-1.8-2.5-3-3.8-3.9-18.8c-0.9-15-0.2-38.9,1.1-41.9
		c1.9-4.4,11.8-4.1,11.8-4.1V6.2l-21.6,0c0,0-20.6,31.3-29.4,43.5c-8.8,12.1-13.4,18.9-13.4,18.9s-0.8-49,0.1-54.2s9.3-5.7,9.3-5.7
		l0.4-2.3l-10.8,0l-6.7,19.3l-2.7,0.1c0.1,11.1,0.2,27-0.2,34.6c-0.5,10.7-5,13.2-10.5,13.2c0,1.1,0,1.9,0,3l20.7,0l43.1-61.1
		c0,0,0.7,50.8-0.1,55.1s-11.1,5-11.1,5l-0.4,1.8c0,0,15,0,33.3,0C344.3,77.3,344.3,76.1,344.3,75.6z" opacity="0">
        <animate attributeName="opacity" from="0" to="1" dur="0.1s" begin="0.6s" fill="freeze"/>
    </path>
	<path fill="#00AEC2" d="M408.7,51.9c-3.3-12.1-14.2-14.9-21.8-16c3.5,0.1,9.3-2.5,12.3-6.8c4-5.6,4.6-23-17.5-23
		c-20,0-35.2,0-35.2,0v2.3c0,0,9.7-0.1,11.4,5.8c1.6,5.3,1.9,49,0.1,54.5c-1.8,5.5-4.7,6.3-7.5,6.6c-0.8,0.1-2.5,0.2-4.1,0.2
		c0,0.5,0,1,0,1.5c0,0.1,0,0.2,0,0.3l22,0c0.5,0,23.8,0.5,27.3-0.8C404,73.4,412.8,67,408.7,51.9z M368.2,9.1c0,0,15.9-0.9,20.7,2.9
		c5.2,4.1,4.9,12.3,2.4,16.5c-4.4,7.4-19.7,7.6-22.9,7.5L368.2,9.1z M392.8,70.7c-8.3,6.2-24.3,2.6-24.3,2.6l-0.1-35
		c6.5,0,18.8-0.4,23.8,3C401.1,47.5,402.9,63.2,392.8,70.7z" opacity="0">
        <animate attributeName="opacity" from="0" to="1" dur="0.1s" begin="0.7s" fill="freeze"/>
    </path>
</g>
</svg>
