<?xml version="1.0" encoding="utf-8"?>
<!-- Generator: Adobe Illustrator 18.1.1, SVG Export Plug-In . SVG Version: 6.00 Build 0)  -->
<svg version="1.1" id="Layer_1" xmlns="http://www.w3.org/2000/svg" xmlns:xlink="http://www.w3.org/1999/xlink" x="0px" y="0px"
	 width="190px" height="95px" viewBox="0 0 190 95" enable-background="new 0 0 190 95" xml:space="preserve">
<path id="dlya" fill="none" stroke="#B8B8B8" stroke-dasharray="800 800" stroke-dashoffset="800" stroke-width="7.1504" stroke-linecap="round" stroke-linejoin="round" stroke-miterlimit="10" d="
	M9,6.7c0,0-0.8,28.6,41.1,14.7c36-12,25.1,24.5,22.9,33.7c-3.6,15.2-20.5,36.9-31.9,25.6c-17.2-17,17.2-60.4,30.8-23.2
	c-1.5,9.1-9.1,17.2-9.1,17.2C59.7,85.2,71,87,81,75.3C96.1,57.6,108.3,24,108.3,24s-16.1,55.3,5,60.6c8.1,2.1,16.1-11.1,12-13.5
	c-8.2-4.9-5.3,13.5,1.1,13.5c10.9,0,20.6-21.5,25.3-30.1c5.7-10.4,12.7-30.6,0.2-35.3c-13.2-5-24.8,12.9-17.7,25.4
	c6.4,11.1,25.6,8.7,33.8,3.8c11.9-7.1,16.9-21.6,14.1-25.9c-3.4-5.3-8,2.5-12.4,12.6c-2.7,6-13.2,37.8-4.5,50
	c6.5,9.1,14.8-3.6,14.8-3.6">
    <animate attributeName="stroke-dashoffset" from="800" to="0" begin="1s" dur="2s" fill="freeze"/>
</path>
</svg>
