<?xml version="1.0" encoding="utf-8"?>
<!-- Generator: Adobe Illustrator 18.1.1, SVG Export Plug-In . SVG Version: 6.00 Build 0)  -->
<svg version="1.1" id="Layer_1" xmlns="http://www.w3.org/2000/svg" xmlns:xlink="http://www.w3.org/1999/xlink" x="0px" y="0px"
	 width="555px" height="105px" viewBox="0 0 555 105" enable-background="new 0 0 555 105" xml:space="preserve">
<g id="effect">
	<path fill="#FF7E2E" d="M179.6,70.3l-0.3-8.9l16.6-0.5l-0.4,8.8L179.6,70.3z M38.7,70.6c0-0.5,0.2-6.5,0.3-7.4
		c-3.3,0.1-16.5,0.3-17.3,0.3c0.2,2.5-0.1,4.9-0.2,7.4C25.4,71.2,36.9,70.7,38.7,70.6z M487.2,61.5c2.3,0.6,7.2,2.2,9.4,4.5
		l-0.6-34.1c-0.5-0.6-8.1,0.1-9,0.3l0,28.3C487,60.9,486.9,61.4,487.2,61.5z M265.3,91.1l-2.9,9.3c-3.5,0-12-2.1-19.7-8.7
		c-8.1-6.9-10.9-21-22.6-22.7c0,0,0,0,0,0c-0.3,0-0.7-0.1-1-0.1c0,0.4,0,26.2,0,26.2s-9.5,0.3-9.7,0c0,0,0.2-22.5,0.2-25.4
		c-1.5,0.1-3.8-0.4-5.3-0.2c0,0,0.2-9,0.2-8.8c1.4,0,4,0.1,5.4,0.1l0.1-28.9c0,0,9.3-0.1,9.3,0.2c0.1,8.7-0.2,19.3-0.2,27.8
		c0,0,0.2,0,0.2,0c-0.2,0,4.7,0.5,8.2-1.2c10.6-5.3,17.4-29.7,17.5-30c0,0,0.1,0,0.1,0.1c2.1,0.3,7.7,3.6,8.2,4.1
		c-3.9,11.2-8.6,25.9-20.1,32.9C245.7,72.7,245.4,88.8,265.3,91.1z M316.6,41.3l-0.2-9.3h-60.2l0,9.7l20-0.2l0.3,54.4l9.9-0.1
		l-0.2-54.4L316.6,41.3z M402.4,74.2c2.2,10.8-5,18.9-15.4,20.3c-10,0.9-20.1,0.9-30.1,0.9c-0.2,0-0.3,0-0.5,0
		c-0.4,0-0.7-0.1-0.9-0.3c0,0.1,0,0.2,0,0.3c-0.4,0-0.8,0-1.3,0c-0.2-16.3-0.8-63.4-0.3-64.2c0,0,26.6,0,31,0.8
		c7.1,0.4,11.5,6.1,12.8,12.6c0.1,0.2,0.2,0.9,0.3,1.3c0.3,1.6,0.4,3.2,0.2,4.8c0,2.1-0.3,4.2-1,6c-1.1,2-2.5,3.8-4.2,5.1
		C397.5,64.3,401.3,68.7,402.4,74.2c0-0.1,0-0.2-0.1-0.3C402.4,74,402.4,74.1,402.4,74.2c0.1,0.6,0.2,1,0.3,1.2
		C402.6,75.1,402.5,74.7,402.4,74.2z M363.7,59.2c7.4-0.2,24.2,1.1,24.9-8.7c0-0.1,0.1-1.3,0.1-1.4c0.4-7.4-5.6-10.3-12-10.5
		c-1.7-0.2-12.9,0.1-13.2,0.1C363.4,38.9,363.8,53.4,363.7,59.2z M381.6,67c-0.1,0-17.8,0.4-17.8,0.4c0,5.9,0.1,12.8,0.1,18.8
		c5.4,0.4,11.6,0.1,17-0.3c5-0.3,9.2-1.8,10.5-7C393,72.3,387.9,67.1,381.6,67z M498.1,75.1c0.8,2.4,1.2,5.2,0.5,7.6
		c-0.4,2.8-1.8,5.6-3.7,7.9c-8.3,8.1-23.2,5.6-33.6,5.9c-0.7-0.1-2.7-0.1-2.7-0.3l-0.9-64.1l10.1-0.3l0.3,31.7
		C468.2,63.6,493.5,58.4,498.1,75.1z M489,83.5C489,83.4,489,83.4,489,83.5L489,83.5z M488.4,84.9C488.4,84.9,488.4,84.9,488.4,84.9
		C488.4,84.9,488.4,84.9,488.4,84.9z M487,73.6c-4.4-4.3-13.1-3.2-18.8-2.4l0.2,17.6c0,0,17.5,2,20.2-4.5
		C489.9,81.3,489.4,75.9,487,73.6z M548.9,33.1l-9.7,0.2c0,0-21.7,36-25,42c0-8.9-0.9-44.6-1-42.9c-1.3-1.2-9.4,0.4-9.5,0.2
		c0,0,0.2,63.2,0.3,63.3c3.4-0.2,5.3,0.1,8.6-0.2c0.1-0.2,18.8-32.7,26.1-46.9c-0.7,10.5-1.1,47.3-1.1,47.3c0,0.1,0,0.2,0.1,0.3
		c4.1-0.3,6.4-0.8,10.5-0.9c0,0,0.1,0,0.1-0.1C548.3,94.6,549.1,43.3,548.9,33.1z M174.6,86.1l-0.5-44.4l26.9-0.3l0.2-9.3l-37.6,0
		l1,63.1l40.1-0.6c0,0,0.1-0.2,0.1-0.3c-0.1-2.3-0.6-8.3-0.6-8.3L174.6,86.1z M159.6,56.3c1.1,5,0.8,10.2-1.2,14.9
		c-3.2,7.6-10,13.2-17.8,15.7c-2.1,0.7-4.2,1.1-6.4,1.4c0,2.1-0.3,4.7-0.3,6.7c0.1,0,0.1,0.1,0.2,0.1c0.3,0.1,0.2,0.5-0.1,0.6
		c-0.1,0-0.1,0-0.2,0c-0.1,0.5-9.8,0.4-9.8,0c0-2.6,0-5.1,0-7.7c-4.1-0.6-8.1-1.8-11.7-3.6c-3-1.5-6.1-3.8-8.5-6.7
		c-4.4,4.4-10.6,8.4-16.9,9.3c0,3.4,0.3,5.1,0.2,8.5c0.2,0.2,0.2,0.6,0,0.9c0,0-7.6,0.4-10.9-0.1c-0.4-0.1-0.5-0.6-0.1-0.7
		c0.1,0,0.1,0,0.2,0c0,0,0-0.1,0,0c-0.2,0.1-0.3-8.5-0.3-8.5c-11.3-1.1-18-5.6-22.7-14.2c-2.1,8.7-8,16.8-15.8,20.9
		c-5.2,2.7-11.1,3.8-16.8,2.7c-5.4-1-11.4-4-14.4-8.9c-0.1-0.1-0.1-0.2,0-0.3c0-0.1,0-0.3,0.2-0.4c1-1.1,6.5-6.2,6.7-6
		c3.1,4,7.4,6.4,11.9,6.5C29.4,88,40.7,84.6,44.1,70c1.1-4.8,0.2-10.4-1.6-15c-0.8-2.2-2.2-4.1-3.6-5.8c-7.6-9-15.5-6.9-21.6-2.2
		c-0.7,0.5-1.4,0.9-2,1.4c-0.7-0.9-1.5-1.8-2.1-2.8c-0.7-1.1-1.5-2.1-2.3-3.2c0-0.1-0.1-0.2-0.1-0.3c0-0.5,0.4-0.9,0.9-1.3
		c2.5-2.6,5.3-4.6,10.3-6.4c6.8-2.4,15.4,0.6,19.3,3.2c5,3.3,9.5,13.3,10.2,14.7C52.1,49,58.9,35.9,76.3,34c0-1,0.1-2,0.1-3
		c0,0,0-0.1,0-0.1c0,0,0-0.1,0-0.1c0-0.1,0.1-0.2,0.1-0.2c0.1-0.1,0.2-0.2,0.4-0.2c2.8-0.4,5.9-0.7,8.8-0.3c0.3,0.1,0.5,0.5,0.3,0.7
		c0,0,0,0.1,0,0.1c0.1,1.1,0.2,2.2,0.2,3.3c5.6,0.5,11,2.2,15.6,6.1c1.5,1.2,2.8,2.6,3.9,4.1c3-3.6,7.2-6.5,11.4-8.4
		c2.2-1,4.7-1.8,7.3-2.4c-0.2-0.9-0.1-1.8-0.1-2.8c0-0.3,0.3-0.5,0.5-0.5c3,0,6,0,8.9,0c0.3,0,0.5,0.3,0.5,0.6c0,0.8,0,1.5,0,2.3
		c1,0.2,11.8,1,19.7,10.8C157,47.2,159.1,51.8,159.6,56.3z M76.2,62.4c0-5.6-0.2-12.9-0.2-18.5c-4.7,1.1-10.7,3.3-13.7,8.7
		c-4.2,7.7-2.8,16.6,4.8,21.4c2.5,1.6,8.9,3.1,8.7,2.6C75.9,72.9,76.2,66.2,76.2,62.4z M97,48.3c-2.6-2.8-7.3-4.8-10.8-5.1
		c0.1,6.4,0.6,15.5,0.7,21.9c0,2.9-0.2,8.6-0.1,11.5c2.8,0.1,7.5-2.9,9.4-4.2C103.9,67.2,101.8,53.5,97,48.3z M124.4,44.9
		c-12.5,3.6-13.7,13.1-13.3,18c0.4,3.8,3.2,8.1,6.3,10.2c2.2,1.5,4.7,2.3,7.3,2.8C124.7,72.5,124.4,46.2,124.4,44.9z M149.1,53.8
		c-2.2-6.5-8.6-9.7-14.8-10.4c0,1.2-0.2,28.9-0.2,32.8c8.3-0.5,13.4-5,15.1-9C150.9,63.3,150.4,57.7,149.1,53.8z M451.1,32
		c0,0-7.5,0.1-11-0.2l-0.1,23.8l-20.8,0.6l0.2-23.9c0,0-7.7,0-11.1-0.2l0.1,64.8h10.2l0.4-30.8l21-0.3c0,0,0.1,20.7,0.1,31.1
		c3.4-0.3,6.8-0.1,10.2-0.2c0-0.2,0.1-0.4,0.1-0.6c0,0,0,0,0,0C450.7,74.8,451.6,53.6,451.1,32z M305.1,47.5h-9.5l0.7,48.5
                            c0,0,8.7,0,9,0L305.1,47.5z M338.3,95.3c0.4,0,7.2,0.1,9.5,0.1c0-3.5-0.4-52.4,0-64.2c-5.1,0-9.8,0-9.8,0L338.3,95.3z" opacity="0"><animate attributeName="opacity" from="0" to="1" begin="2s" dur="1s" fill="freeze"/></path>
	<path id="smile" fill="none" stroke="#FF7E2E" stroke-width="8" stroke-miterlimit="10" d="M507.3,7c3.3,20.6,34,20.6,38.1,0.1" stroke-dasharray="200 200" stroke-dashoffset="200">
            <animate attributeName="stroke-dashoffset" from="200" to="0" begin="3s" dur="1s" fill="freeze"/></path>
	
		<line id="diagonal" fill="none" stroke="#FF7E2E" stroke-width="8" stroke-miterlimit="10" x1="301.7" y1="93.8" x2="341.2" y2="33.6" stroke-dasharray="200 200" stroke-dashoffset="200">
            <animate attributeName="stroke-dashoffset" from="200" to="0" begin="2.8s" dur="0.5s" fill="freeze"/></line>
</g>
</svg>
