<?xml version="1.0" encoding="utf-8"?>
<!-- Generator: Adobe Illustrator 18.1.1, SVG Export Plug-In . SVG Version: 6.00 Build 0)  -->
<svg version="1.1" id="Layer_1" xmlns="http://www.w3.org/2000/svg" xmlns:xlink="http://www.w3.org/1999/xlink" x="0px" y="0px"
	 width="365px" height="115px" viewBox="0 0 365 115" enable-background="new 0 0 365 115" xml:space="preserve">
<g id="folio">
	<path fill="none" stroke="#A62F5D" stroke-width="3" stroke-linecap="round" stroke-linejoin="round" stroke-miterlimit="10" d="
		M156.2,5.8c-11.5,19.7-41,21.2-59,20.2c-11.3-0.6-46.1-7.6-57.4-7.1C31,19.2,9.5,21.9,4.5,30.2c-3,5,4.2,6.4,9.7,5.6
		c15-2.2,23-9.4,31-20.4c-6.4,7.4-28.5,52.5-28.5,52.5c3.1-6.8,10.4-17,17.7-26c7.3-9.2,14.2-14,16-11.7
		c3.6,4.5-15.9,27.3-14.2,35.3c1.7,7.9,13.2-5.4,18.1-12.5c0.3-0.4,0.8-0.1,0.7,0.3c-1.5,4.4-4.5,12.1,1.4,14.5
		c10.2,4.1,20.7-18,15.2-23c-7.3-6.5-15.9,4.9-12.2,8.3c5.7,5.1,19.7-3.9,24.1-7c0.6-0.4,1.4,0.3,1.1,0.9
		c-10,20-21.6,40.2-31.6,60.4C58.5,93.7,68.4,73,79,60.1c2.5-3,12.6-17.4,18-15.3c9.4,3.6-7.9,27.7-12.8,22.3
		c-1.7-1.8,1.6-7.5,8-9.6c12-3.8,21.8-12.6,21.8-12.6c-2.4,5.3-4.5,14.2-10.2,22.4c1.9-3.1,15.5-26.5,21.2-22.8
		c3.9,2.6-5.3,19.7-8.2,23.1c2.2-4.6,14.4-24.2,20.4-23.1s-7.7,18.7-7.5,21.2c0.4,5.2,11.1,0.9,18.5-11.1c0.1-0.1,0.3,0,0.2,0.1
		c-2,3.9-3.5,11.8,1.8,12.7c8,1.4,18.3-20.6,10.2-22.7c-5-1.3-10.8,5.3-8.5,8.8c2.5,3.8,15.9-8.6,18.7-11.7c0,0,0.1,0,0.1,0.1
		c-17.7,39.9-23.2,58.1-30.8,67.2c0,0-0.1,0-0.1,0c1.5-7,16-37.7,23.4-49.9c2.2-3.6,7.9-12.7,14-13.7c6.8-1.1,5.9,6.9,4.1,11.2
		c-2.9,6.7-10.7,14.4-14.1,10.3c-4.3-5.3,9.4-13.2,15.5-14.8c7.2-1.9,10.3-0.7,9.6,0.9c-2,4.3-3.9,11.5-0.4,14.1
		c8.4,6.1,22.3-15.8,14.7-22.5c-3.6-3.1-10.4-0.2-10.8,4.2c-3.5,12.8,15.9,25.2,19.6,11.9c-1.9,1.4-2.3,6.5,0.1,7.4
		c7.5,2.8,19.5-22,26.3-23.5c0,0,0.1,0,0.1,0.1c-2.2,5.3-8.2,18.2-6.4,21.1c5.1,8,21.9-13.9,25-21.5c-0.7,3.1-11.3,21-7,23.4
		c4.7,2.7,23.1-23.6,23.1-23.6c-2.9,5.9-9.9,22.5-4.3,23.5c6.3,1.1,13.6-10.3,17.5-16.5c0.3-0.5,1.1,0.1,0.8,0.5
		c-3.3,5.1-4.8,19.6,3.2,17.6c9.9-2.5,16.7-26.7,6.2-26.7c-4.8,0-8.2,7.7-2,9.5c8.4,2.5,18.1-4.5,14.9-13.4" stroke-dasharray="1800 1800" stroke-dashoffset="1800">
        <animate attributeName="stroke-dashoffset" from="1800" to="0" begin="1s" dur="3s" fill="freeze"/></path>
	<path fill="none" stroke="#A62F5D" stroke-width="3" stroke-linecap="round" stroke-linejoin="round" stroke-miterlimit="10" d="
		M345.6,37.4c0.1,8.5-0.4,18.5,0,27c3.6-0.2,7.8-6.3,9.3-9.5c-8.7,15.2-11.8,9.5-20.8,1.5" stroke-dasharray="200 200" stroke-dashoffset="200">
        <animate attributeName="stroke-dashoffset" from="200" to="0" begin="4s" dur="0.5s" fill="freeze"/></path>
	<path fill="none" stroke="#A62F5D" stroke-width="3" stroke-linecap="round" stroke-linejoin="round" stroke-miterlimit="10" d="
		M327.9,70.1h33.3" stroke-dasharray="200 200" stroke-dashoffset="200">
        <animate attributeName="stroke-dashoffset" from="200" to="0" begin="4.5s" dur="0.5s" fill="freeze"/></path>
</g>
</svg>
