<?xml version="1.0" encoding="utf-8"?>
<!-- Generator: Adobe Illustrator 18.1.1, SVG Export Plug-In . SVG Version: 6.00 Build 0)  -->
<svg version="1.1" id="Layer_1" xmlns="http://www.w3.org/2000/svg" xmlns:xlink="http://www.w3.org/1999/xlink" x="0px" y="0px"
	 width="320px" height="95px" viewBox="0 0 320 95" enable-background="new 0 0 320 95" xml:space="preserve">
<g>
	<path id="web" fill="#9AA630" d="M203.4,6.7l-27.5,65.4l-10.4-24.7l14.6-35.1l-15-5.6l-8.4,20l-8.3-20l-15.2,6.2L148,47.7
		l-10.3,24.4L110.2,6.7L95,12.9l31.9,75.4h4h13.6h4l8.3-19.9l8.4,19.9h4h13.6h4l31.7-76L203.4,6.7z M180.5,82.6h-9.6l-0.2-0.5
		L156.7,49l-14.4,33.6h-9.6l-29-68l1.5-0.6l28.6,67h7.4l14.6-34L142,14.5l1.5-0.6l13.1,30.9l13.2-30.9l1.5,0.6l-13.9,32.4l14.5,34
		h7.4l28.7-67l1.5,0.6L180.5,82.6z M233,6.7h-7.4l-27.5,65.4l9.8,16.2h45.1v-13h-39.7l10.5-25.1h29.1v-13h-23.6l7.3-17.4h16.3v-13
		h-10.9H233z M247.6,14.1h-16l-12,28.8h28v1.6h-28.7l-12,28.8l4.2,7.6h36.4v1.6h-37.4l-5.1-9.2l25.4-61h17.1V14.1z M292.1,44.5
		h-10.3H281h-15.6v36.5h24.1c11.1,0,19.2-7.4,19.2-17.6C308.7,52.6,301.6,44.5,292.1,44.5z M289.5,75.2h-18.4V50.2h10.7h10.3
		c5.4,0,10.9,4.5,10.9,13.1C303,70.3,297.4,75.2,289.5,75.2z M281.8,42.8c7,0,14.3-5.3,14.3-14.3c0-10-6.6-14.5-12.7-14.5h-18v28.8
		H281H281.8z M271.1,19.8h12.3c3.4,0,7,2.3,7,8.7c0,5.9-5,8.5-8.6,8.5h-10.7V19.8z M301,38.8c1.6-2.9,2.5-6.4,2.5-10.3
		c0-14.4-10.1-21.9-20.1-21.9h-18.8v0.1h-6.5v81.6h6.5v0.1h24.9c15.2,0,26.6-10.7,26.6-25C316.1,51.9,310,42.5,301,38.8z
		 M289.5,82.6h-25.8v-0.8v-0.8V44.5v-1.6V14.1v-0.8v-0.8h19.6c6.9,0,14.4,5.1,14.4,16.1c0,6.9-3.9,11.9-8.9,14.3h3.2
		c10.4,0,18.3,8.8,18.3,20.5C310.4,74.5,301.6,82.6,289.5,82.6z"/>
	<g id="anpersand">
		<path fill="#596B1B" d="M119,46.3c1,2.4,2.2,5,3.1,7.3c-7.2-2.9-49.3-18.6-66.3-12.8c1.6,1.6,3,4.2,3.3,6.5
			c0.6,4.9-1.7,9.8-4.4,13.7c-10.4,15-34,17.7-46.1,3.2c-5.3-6.3-6.6-15.8-1.7-22.8c2.9-4.2,7.8-6.5,12.6-6.3
			c-1.1-2.5-1.5-5.3-0.9-8c1.2-5.5,6.6-9.2,12.1-9.3c6.1-0.1,11.5,4.3,12.1,10.5c0.5,5.8-2.8,11.7-8.8,12.7
			c-1.4,0.2-2.4-1.9-1.3-2.8c4.9-4.4,6.1-13.8-2.1-15.3c-8.7-1.5-11.2,9.6-5,13.9c0.3,0.2,0.7,0.4,1,0.6c2,1.4,0.5,4.7-1.8,3.5
			c-0.3-0.2-0.6-0.3-0.9-0.5c-7-3.6-14.6,2.8-14.7,10.2c-0.1,7.9,6.4,14,13.6,16.2c7.8,2.3,16.4,0.6,22.6-4.7
			c5.2-4.5,10.9-13.6,4.8-19.2c-5.4,2.6-7.7,8.8-8.3,10.8c-0.5,1.7-0.8,3.5-2,4.8c-0.6,0.7-1.6,0.6-2.1-0.2
			c-2.6-3.7,0.6-10.2,3.1-13.2c4.8-5.9,12.3-8.7,16.6-9.3c19.3-3.1,51.4,6.6,58.8,9.5C117.2,45.6,118.1,46,119,46.3z M142.7,52.5
			c-5.1-0.4-9.7-1.5-14.5-3c1,2.3,1.9,4.7,3,7c7,1.8,14.2,2.6,21.5,1.9c0.8-1.9,2.6-6.1,2.6-6.1C150.8,53,146,52.7,142.7,52.5z
			 M171.8,40.6c-0.3-1.4-1-2.9-1.8-4.1l-3.5,7.8c-0.1,1.2-0.6,2.1-1.3,3.1c-1.7,2.4-4.2,3.7-7.4,4.5l2.3,5.3
			C167.6,55.1,173.9,49,171.8,40.6z M163.2,32c-3.8-0.9-9.8,0.4-11.4,4.3c-0.5,1.2,0.5,2.5,1.8,2.1c2.8-0.9,5.4-2.1,8.1-1.2
			c0.8-1.7,2.2-5,2.2-5C163.5,32.1,163.5,32.1,163.2,32z"/>
	</g>
</g>
</svg>
