<?xml version="1.0" encoding="utf-8"?>
<!-- Generator: Adobe Illustrator 18.1.1, SVG Export Plug-In . SVG Version: 6.00 Build 0)  -->
<svg version="1.1" id="Layer_1" xmlns="http://www.w3.org/2000/svg" xmlns:xlink="http://www.w3.org/1999/xlink" x="0px" y="0px"
	 width="225px" height="100px" viewBox="0 0 225 100" enable-background="new 0 0 225 100" xml:space="preserve">
<g id="LOGO">
	<polygon fill="#8cba2e" points="67.2,96.2 38.4,82.6 38.4,90.4 	"/>
	<g>
		<defs>
			<polygon id="SVGID_1_" points="67.2,83.3 38.4,90.4 38.4,82.6 67.2,68.5 			"/>
		</defs>
		<clipPath id="SVGID_2_">
			<use xlink:href="#SVGID_1_"  overflow="visible"/>
		</clipPath>
		<rect x="38.4" y="68.5" clip-path="url(#SVGID_2_)" fill="#ffc62a" width="28.8" height="21.9"/>
		<polygon clip-path="url(#SVGID_2_)" fill="#cfd941" points="38.4,82.6 38.4,90.4 54.9,90.4 		"/>
	</g>
	<g>
		<defs>
			<polygon id="SVGID_3_" points="5,66.7 67.2,83.3 67.2,68.5 5,4.7 			"/>
		</defs>
		<clipPath id="SVGID_4_">
			<use xlink:href="#SVGID_3_"  overflow="visible"/>
		</clipPath>
		<rect x="5" y="4.7" clip-path="url(#SVGID_4_)" fill="#eb7405" width="62.2" height="78.7"/>
		<polygon clip-path="url(#SVGID_4_)" fill="#e85f11" points="38.4,82.6 70.9,66.8 68.5,86.5 		"/>
	</g>
	<path id="red" fill="#d91922" d="M79.5,66.7c-7.6,0-74.5,0-74.5,0V4.7c0,0,67.1,0,74.6,0c7.5,0,6.8,6.2,6.8,6.2v49.6
		C86.4,60.5,87.1,66.7,79.5,66.7z"/>
	<g id="re">
		<path fill="#FFFFFF" d="M61.9,33.3c0,2-1.1,3-3,3c-1.2,0-2.5,0-3.7,0c-3.7,0-7.4,0-11,0c-0.9,0-1.9,0-2.8,0c0,1.9,0.3,4,1.5,5.6
			c1.1,1.5,2.9,2.3,4.8,2.5c1.9,0.3,4,0.1,5.9-0.2c1.9-0.4,3.6-1.2,5.4-1.6c2.1-0.5,1.7,2.5,1.6,3.8c0,0.8-0.1,1.7-0.8,2.2
			c-0.7,0.5-1.7,0.8-2.5,1c-4,1.2-8.4,1.6-12.5,1c-3.8-0.6-7.4-2.3-9.5-5.6c-2.1-3.4-2.6-7.7-2.4-11.6c0.2-4,1.2-8.1,3.8-11.2
			c2.7-3.2,6.7-4.7,10.8-4.8c4.3-0.1,8.9,1.1,11.7,4.6C61.5,25.3,61.9,29.3,61.9,33.3z M53.8,30.9c0.1-3.6-1.3-7.1-5.3-7.5
			c-2-0.2-3.9,0.3-5.2,1.8c-1.4,1.5-1.9,3.7-2,5.7C45.4,30.9,49.6,30.9,53.8,30.9z"/>
		<g>
			<path fill="#FFFFFF" d="M68.1,27.7c1,1.1,2.7,1.1,4.1,1.1c1.3,0,2.7-0.2,3.5-1.3c0.8-1.1,0.9-2.6,0.8-3.8c0-1.3-0.1-2.8-1-3.8
				c-0.9-1-2.4-1.1-3.7-1.1c-1.4,0-3,0.2-3.9,1.3c-0.8,1-0.8,2.5-0.8,3.7C67.2,25.1,67.2,26.7,68.1,27.7
				C68.5,28.1,67.8,27.3,68.1,27.7z M69.7,22.6c0.3-1.4,2.1-1.6,3.3-1.2c1.3,0.4,1.4,2.3,1.1,3.5c-0.4,1.4-2.1,1.5-3.3,1.2
				C69.4,25.7,69.4,23.8,69.7,22.6C69.7,22.3,69.6,22.9,69.7,22.6z"/>
			<path fill="#FFFFFF" d="M75.5,41.6c-1-1.1-2.7-1.1-4.1-1.1c-1.3,0-2.7,0.2-3.5,1.3c-0.8,1.1-0.8,2.7-0.8,3.9
				c0,1.2,0.1,2.7,0.9,3.7c0.9,1,2.4,1.1,3.7,1.1c1.4,0,3-0.1,3.9-1.3c0.8-1,0.8-2.5,0.8-3.7C76.5,44.2,76.5,42.6,75.5,41.6
				C75.2,41.2,75.9,42,75.5,41.6z M74,46.7c-0.3,1.4-2.1,1.5-3.3,1.2c-1.4-0.4-1.4-2.3-1.1-3.5c0.3-1.4,2.1-1.6,3.3-1.2
				C74.3,43.6,74.3,45.5,74,46.7C74,47,74.1,46.4,74,46.7z"/>
		</g>
		<path fill="#FFFFFF" d="M32.8,22.1c0,1,0,2-0.2,2.9c-0.3,1.2-1.1,1-2,0.7c-2.1-0.7-3.8-0.5-5.4,1c-0.7,0.6-1.3,1.3-1.8,2
			c-0.4,0.5-1.1,1.2-1.2,1.8c-0.1,0.4,0,0.9,0,1.3c0,4.4,0,8.8,0,13.1c0,1.3,0,2.7,0,4c0,1.9-5.4,1.4-6.5,1.2
			c-1.1-0.2-1.8-0.5-1.9-1.6c0-1.9,0-3.9,0-5.8c0-6.2,0-12.4,0-18.7c0-1.6,0-3.2,0-4.7c0-1.5,2.6-1.3,3.6-1.3c1,0,3.1-0.2,3.5,1
			c0.2,0.6,0,1.4,0,2c0,0.7,0,1.4,0,2c1.7-2.5,3.9-5.2,7.1-5.5c1.2-0.1,3.3-0.1,4.2,0.8C33.1,19,32.8,21,32.8,22.1z"/>
	</g>
	<g id="text">
		<path fill="#333333" d="M123.7,34.4c0,2.6-0.3,5-0.8,7.1c-0.6,2.1-1.4,3.9-2.5,5.3c-1.1,1.5-2.5,2.6-4.1,3.4
			c-1.6,0.8-3.5,1.2-5.6,1.2c-0.9,0-1.7-0.1-2.5-0.3c-0.8-0.2-1.5-0.4-2.2-0.8c-0.7-0.4-1.4-0.9-2.1-1.4c-0.7-0.6-1.5-1.3-2.3-2v19
			c0,0.2,0,0.3-0.1,0.5c-0.1,0.1-0.2,0.2-0.4,0.3c-0.2,0.1-0.5,0.2-0.8,0.2c-0.4,0-0.8,0.1-1.4,0.1c-0.5,0-1,0-1.3-0.1
			c-0.4,0-0.6-0.1-0.9-0.2c-0.2-0.1-0.4-0.2-0.4-0.3c-0.1-0.1-0.1-0.3-0.1-0.5V19.9c0-0.2,0-0.4,0.1-0.5c0.1-0.1,0.2-0.2,0.4-0.3
			c0.2-0.1,0.5-0.1,0.8-0.2c0.3,0,0.7,0,1.1,0c0.5,0,0.9,0,1.1,0c0.3,0,0.6,0.1,0.7,0.2c0.2,0.1,0.3,0.2,0.4,0.3
			c0.1,0.1,0.1,0.3,0.1,0.5v4c0.9-0.9,1.8-1.7,2.6-2.4c0.8-0.7,1.7-1.3,2.5-1.7c0.9-0.5,1.7-0.8,2.6-1c0.9-0.2,1.8-0.4,2.8-0.4
			c2.2,0,4,0.4,5.6,1.3c1.5,0.8,2.8,2,3.7,3.5c1,1.5,1.7,3.2,2.1,5.1C123.5,30.2,123.7,32.2,123.7,34.4z M118,35
			c0-1.5-0.1-3-0.4-4.4c-0.2-1.4-0.6-2.7-1.2-3.8c-0.6-1.1-1.3-2-2.3-2.7c-1-0.7-2.1-1-3.6-1c-0.7,0-1.4,0.1-2.1,0.3
			c-0.7,0.2-1.4,0.5-2.1,1c-0.7,0.5-1.5,1.1-2.2,1.8c-0.8,0.7-1.6,1.7-2.5,2.7v11.9c1.5,1.8,3,3.2,4.3,4.2c1.4,1,2.8,1.5,4.3,1.5
			c1.4,0,2.6-0.3,3.6-1c1-0.7,1.8-1.5,2.4-2.7c0.6-1.1,1.1-2.3,1.4-3.7C117.9,37.8,118,36.4,118,35z M157.1,34.5
			c0,2.4-0.3,4.7-1,6.7c-0.6,2-1.6,3.8-2.9,5.3c-1.3,1.5-2.9,2.6-4.8,3.5c-1.9,0.8-4.1,1.2-6.7,1.2c-2.5,0-4.6-0.4-6.4-1.1
			c-1.8-0.7-3.4-1.8-4.6-3.2c-1.2-1.4-2.1-3.1-2.7-5.1c-0.6-2-0.9-4.3-0.9-6.8c0-2.4,0.3-4.7,1-6.7c0.6-2.1,1.6-3.8,2.9-5.3
			c1.3-1.5,2.9-2.6,4.8-3.5c1.9-0.8,4.1-1.2,6.7-1.2c2.5,0,4.6,0.4,6.4,1.1c1.8,0.7,3.4,1.8,4.6,3.2c1.2,1.4,2.1,3.1,2.7,5.1
			C156.8,29.8,157.1,32,157.1,34.5z M151.4,34.9c0-1.6-0.2-3.2-0.5-4.6c-0.3-1.4-0.8-2.7-1.5-3.8c-0.7-1.1-1.6-1.9-2.8-2.6
			c-1.2-0.6-2.7-0.9-4.4-0.9c-1.6,0-3,0.3-4.2,0.9c-1.2,0.6-2.1,1.4-2.9,2.4c-0.8,1.1-1.3,2.3-1.7,3.7c-0.4,1.4-0.5,3-0.5,4.7
			c0,1.6,0.2,3.2,0.5,4.6c0.3,1.4,0.8,2.7,1.5,3.8c0.7,1.1,1.6,1.9,2.8,2.6c1.2,0.6,2.7,0.9,4.4,0.9c1.6,0,3-0.3,4.2-0.9
			c1.2-0.6,2.2-1.4,2.9-2.4c0.8-1,1.3-2.3,1.7-3.7C151.2,38.2,151.4,36.6,151.4,34.9z M169.3,5.7c-0.7-0.7-2.1-1.1-4.1-1.1
			c-2,0-3.5,0.4-4.2,1.1c-0.8,0.7-1.2,2.1-1.2,4.1c0,2,0.4,3.3,1.1,4c0.7,0.7,2.1,1.1,4.1,1.1c2.1,0,3.5-0.4,4.2-1.1
			c0.8-0.7,1.1-2.1,1.1-4.1C170.5,7.8,170.1,6.4,169.3,5.7z M167.3,11.8c-0.4,0.4-1.1,0.6-2.1,0.6c-1,0-1.7-0.2-2.1-0.5
			c-0.4-0.4-0.6-1-0.6-2c0-1,0.2-1.7,0.6-2.1c0.4-0.4,1.1-0.6,2.1-0.6c1,0,1.7,0.2,2.1,0.5c0.4,0.4,0.6,1,0.6,2
			C167.8,10.8,167.6,11.5,167.3,11.8z M167.3,19.1c-0.2-0.1-0.5-0.2-0.8-0.2c-0.4,0-0.8-0.1-1.4-0.1c-0.5,0-1,0-1.3,0.1
			c-0.4,0-0.6,0.1-0.8,0.2c-0.2,0.1-0.4,0.2-0.4,0.3c-0.1,0.1-0.1,0.3-0.1,0.4v29.9c0,0.2,0,0.3,0.1,0.5c0.1,0.1,0.2,0.2,0.4,0.3
			c0.2,0.1,0.5,0.2,0.8,0.2c0.4,0,0.8,0.1,1.3,0.1c0.5,0,1,0,1.4-0.1c0.4,0,0.6-0.1,0.8-0.2c0.2-0.1,0.3-0.2,0.4-0.3
			c0.1-0.1,0.1-0.3,0.1-0.5V19.9c0-0.2,0-0.3-0.1-0.4C167.7,19.3,167.5,19.2,167.3,19.1z M201.1,49.8c0,0.2,0,0.3-0.1,0.5
			c-0.1,0.1-0.2,0.2-0.4,0.3c-0.2,0.1-0.5,0.2-0.8,0.2c-0.4,0-0.8,0.1-1.3,0.1c-0.6,0-1,0-1.4-0.1c-0.4,0-0.6-0.1-0.8-0.2
			c-0.2-0.1-0.3-0.2-0.4-0.3c-0.1-0.1-0.1-0.3-0.1-0.5V32.3c0-1.7-0.1-3.1-0.4-4.1c-0.3-1-0.7-1.9-1.2-2.7c-0.5-0.8-1.2-1.3-2-1.7
			c-0.8-0.4-1.8-0.6-2.8-0.6c-1.4,0-2.7,0.5-4.1,1.5c-1.4,1-2.8,2.4-4.3,4.3v20.9c0,0.2,0,0.3-0.1,0.5c-0.1,0.1-0.2,0.2-0.4,0.3
			c-0.2,0.1-0.5,0.2-0.8,0.2c-0.4,0-0.8,0.1-1.4,0.1c-0.5,0-1,0-1.3-0.1c-0.4,0-0.6-0.1-0.9-0.2c-0.2-0.1-0.4-0.2-0.4-0.3
			c-0.1-0.1-0.1-0.3-0.1-0.5V19.9c0-0.2,0-0.3,0.1-0.4c0.1-0.1,0.2-0.2,0.4-0.3c0.2-0.1,0.5-0.2,0.8-0.2c0.3,0,0.7,0,1.2,0
			c0.5,0,0.9,0,1.2,0c0.3,0,0.6,0.1,0.7,0.2c0.2,0.1,0.3,0.2,0.4,0.3c0.1,0.1,0.1,0.3,0.1,0.4v4c1.7-1.9,3.4-3.3,5-4.1
			c1.7-0.9,3.4-1.3,5.1-1.3c2,0,3.7,0.3,5,1c1.4,0.7,2.5,1.6,3.3,2.7c0.9,1.1,1.4,2.5,1.8,4c0.4,1.5,0.5,3.3,0.5,5.5V49.8z
			 M223.3,47.6c0,0.6,0,1.2-0.1,1.5c-0.1,0.4-0.2,0.7-0.4,0.8c-0.2,0.2-0.4,0.3-0.8,0.5c-0.4,0.2-0.8,0.3-1.2,0.4
			c-0.5,0.1-0.9,0.2-1.4,0.2c-0.5,0.1-1,0.1-1.5,0.1c-1.5,0-2.9-0.2-4-0.6c-1.1-0.4-2-1-2.7-1.9c-0.7-0.8-1.2-1.9-1.6-3.2
			c-0.3-1.3-0.5-2.8-0.5-4.5V23.6h-4.2c-0.3,0-0.6-0.2-0.8-0.5c-0.2-0.4-0.3-0.9-0.3-1.7c0-0.4,0-0.8,0.1-1.1
			c0.1-0.3,0.1-0.5,0.2-0.7c0.1-0.2,0.2-0.3,0.4-0.4c0.1-0.1,0.3-0.1,0.5-0.1h4.2v-7.1c0-0.2,0-0.3,0.1-0.4c0.1-0.1,0.2-0.3,0.4-0.4
			c0.2-0.1,0.5-0.2,0.8-0.2c0.4,0,0.8-0.1,1.3-0.1c0.6,0,1,0,1.4,0.1c0.4,0,0.6,0.1,0.8,0.2c0.2,0.1,0.3,0.2,0.4,0.4
			c0.1,0.1,0.1,0.3,0.1,0.4V19h7.7c0.2,0,0.3,0,0.5,0.1c0.1,0.1,0.2,0.2,0.4,0.4c0.1,0.2,0.2,0.4,0.2,0.7c0,0.3,0.1,0.6,0.1,1.1
			c0,0.8-0.1,1.4-0.3,1.7c-0.2,0.4-0.5,0.5-0.8,0.5h-7.7v16.7c0,2.1,0.3,3.6,0.9,4.7c0.6,1.1,1.7,1.6,3.3,1.6c0.5,0,1,0,1.4-0.1
			c0.4-0.1,0.8-0.2,1.1-0.3c0.3-0.1,0.6-0.2,0.8-0.3c0.2-0.1,0.4-0.2,0.6-0.2c0.1,0,0.2,0,0.3,0.1c0.1,0.1,0.2,0.2,0.2,0.3
			c0,0.2,0.1,0.4,0.2,0.6C223.3,46.9,223.3,47.2,223.3,47.6z"/>
		<path fill="#333333" d="M117,65.7c0,1.1-1.5,1.5-2.4,1.6c-1.2,0.1-2.5-0.4-3.2-1.5c-1.1-1.9-0.9-5.4,1.1-6.7
			c1-0.6,2.4-0.7,3.5-0.2c0.5,0.2,0.9,0.5,1,1.1c0,0.4,0,0.8-0.5,0.7c-0.5-0.2-0.9-0.7-1.5-0.8c-0.6-0.1-1.2-0.1-1.7,0.3
			c-1,0.7-1.1,2.1-1,3.1c0.1,1.3,0.6,2.7,2.1,2.8c0.7,0,1.2-0.2,1.8-0.6C116.7,65.1,117,64.8,117,65.7z M123.5,59.5
			c0,0.8-0.2,0.6-0.9,0.5c-0.7-0.1-1.2,0.2-1.6,0.8c-0.6,0.7-0.6,1-0.6,1.8c0,0.9,0,1.7,0,2.6c0,0.4,0.2,1.3,0,1.7
			c-0.1,0.3-0.7,0.3-1,0.3c-0.4-0.1-0.4-0.1-0.4-0.4c-0.1-0.4,0-1.1,0-1.6c0-1.7,0-3.4,0-5.1c0-0.3-0.1-1,0.1-1.3
			c0.3-0.3,1.1-0.1,1.2,0.3c0.1,0.3,0,0.8,0,1.1c0.5-0.7,1.1-1.4,1.9-1.5C122.9,58.5,123.5,58.7,123.5,59.5z M131.6,62.6
			c0,1-2.1,0.6-2.7,0.6c-1,0-2,0-3,0c0,1.5,0.7,2.7,2.3,2.9c0.6,0,1.2,0,1.8-0.2c0.3-0.1,1-0.6,1.3-0.2c0.3,0.4,0,1-0.4,1.2
			c-0.5,0.3-1.2,0.4-1.7,0.4c-1.4,0.2-2.9,0-3.8-1.1c-1.6-1.9-1.2-5.9,1.1-7.1c1.2-0.6,2.8-0.6,3.9,0.2
			C131.4,60,131.7,61.3,131.6,62.6z M130.2,62.2c0-1.3-0.6-2.4-2-2.4c-1.4-0.1-2.3,1.1-2.3,2.4C127.3,62.2,128.8,62.2,130.2,62.2z
			 M139.8,66.9c0,0.4-1.1,0.3-1.2,0.1c-0.1-0.2,0-0.7,0-0.9c-1.1,1.1-2.9,1.6-4.3,0.7c-1.1-0.8-1.3-2.6-0.3-3.6
			c0.9-0.9,2.4-0.9,3.7-0.9c0.4,0,0.6,0.1,0.7-0.2c0.2-0.4,0-1.3-0.3-1.7c-0.8-1.2-2.6-0.5-3.6,0c-0.5,0.3-0.9,0.2-0.8-0.5
			c0.1-0.6,1-0.9,1.5-1c1.2-0.3,3-0.4,4,0.6c0.6,0.7,0.6,1.7,0.6,2.6C139.8,63.7,139.8,65.3,139.8,66.9z M138.4,63.3
			c-0.7,0-1.5-0.1-2.3,0.1c-1,0.3-1.8,1.5-0.9,2.4c0.4,0.4,1.1,0.4,1.6,0.3c0.4-0.1,1.4-0.6,1.5-1.1
			C138.5,64.6,138.4,63.8,138.4,63.3z M146.4,66.3c0,1-1.2,1-2,0.9c-1-0.2-1.6-0.9-1.7-1.9c-0.1-1,0-2.1,0-3.1c0-0.6,0-1.2,0-1.7
			c0-0.5,0.1-0.5-0.2-0.6c-0.6-0.2-1.2,0.3-1.2-0.6c0-0.4,0.1-0.5,0.4-0.6c0.2,0,0.8,0.1,1,0c0.1-0.1,0-0.9,0-1.2c0-0.6-0.1-1,0.7-1
			c0.7,0,0.7,0.2,0.7,0.8c0,0.3-0.1,1.2,0.1,1.3c0.3,0.2,1.3,0,1.6,0c0.1,0,0.4,0,0.5,0c0.3,0.2,0.3,1,0,1.1c-0.3,0.2-1.1,0-1.4,0
			c-0.1,0-0.6-0.1-0.7,0c-0.1,0.1,0,0-0.1,0.2c-0.2,0.4,0,1.3,0,1.7c0,0.7,0,1.3,0,2c0,0.6-0.1,1.2,0.2,1.7c0.3,0.4,0.8,0.5,1.2,0.4
			C146.1,65.9,146.4,65.6,146.4,66.3z M149.9,56.4c0,1.2-1.8,1.2-1.8,0C148.1,55.2,149.9,55.2,149.9,56.4z M149.7,66.9
			c0,0.4-1,0.3-1.2,0.2c-0.3-0.1-0.2-0.1-0.3-0.4c-0.1-0.4,0-1.1,0-1.6c0-1.7,0-3.3,0-5c0-0.3-0.1-0.9,0-1.2c0.2-0.5,1.3-0.4,1.4,0
			c0.1,0.4,0,1,0,1.4c0,0.8,0,1.6,0,2.4C149.7,64.2,149.7,65.6,149.7,66.9z M158.9,59c0,0.5-0.4,1.2-0.5,1.7
			c-0.4,1.1-0.8,2.3-1.2,3.4c-0.3,0.8-0.5,1.8-0.9,2.6c-0.3,0.6-1.7,0.7-2.1,0.1c-0.4-0.7-0.6-1.6-0.8-2.3c-0.4-1.2-0.8-2.3-1.2-3.5
			c-0.2-0.4-0.7-1.4-0.6-1.9c0.1-0.6,1.3-0.4,1.5,0c0.1,0.1,0.1,0.4,0.2,0.6c0.7,2,1.4,4,2.1,6c0.4-1.3,0.9-2.7,1.3-4
			c0.3-0.8,0.5-1.5,0.8-2.3c0-0.1,0.1-0.3,0.1-0.4C157.6,58.8,158.9,58.5,158.9,59z M167.1,62.6c0,1-2.1,0.6-2.7,0.6c-1,0-2,0-3,0
			c0,1.5,0.7,2.7,2.3,2.9c0.6,0,1.2,0,1.8-0.2c0.3-0.1,1-0.6,1.3-0.2c0.3,0.4,0,1-0.4,1.2c-0.5,0.3-1.2,0.4-1.7,0.4
			c-1.4,0.2-2.9,0-3.8-1.1c-1.6-1.9-1.2-5.9,1.1-7.1c1.2-0.6,2.8-0.6,3.9,0.2C166.8,60,167.1,61.3,167.1,62.6z M165.6,62.2
			c0-1.3-0.6-2.4-2-2.4c-1.4-0.1-2.3,1.1-2.3,2.4C162.8,62.2,164.2,62.2,165.6,62.2z M179.3,66.9c0,0.4-1.1,0.3-1.2,0.1
			c-0.1-0.2,0-0.7,0-0.9c-1.1,1.1-2.9,1.6-4.3,0.7c-1.1-0.8-1.3-2.6-0.3-3.6c0.9-0.9,2.4-0.9,3.7-0.9c0.4,0,0.6,0.1,0.7-0.2
			c0.2-0.4,0-1.3-0.3-1.7c-0.8-1.2-2.6-0.5-3.6,0c-0.5,0.3-0.9,0.2-0.8-0.5c0.1-0.6,1-0.9,1.5-1c1.2-0.3,3-0.4,4,0.6
			c0.6,0.7,0.6,1.7,0.6,2.6C179.3,63.7,179.3,65.3,179.3,66.9z M177.9,63.3c-0.7,0-1.5-0.1-2.3,0.1c-1,0.3-1.8,1.5-0.9,2.4
			c0.4,0.4,1.1,0.4,1.6,0.3c0.4-0.1,1.4-0.6,1.5-1.1C178,64.6,177.9,63.8,177.9,63.3z M188.6,59.4c0,0.8-0.8,0.6-1.4,0.6
			c1,1,0.6,3-0.5,3.8c-0.5,0.4-1.1,0.5-1.7,0.6c-0.4,0-0.8,0-1.2-0.1c-0.4-0.1-0.5-0.4-0.8-0.2c-0.4,0.4-0.2,1,0.2,1.3
			c0.3,0.2,0.6,0.1,1,0.1c0.7,0,1.3,0,2,0.1c1.2,0.1,2.4,0.8,2.4,2.1c0,1.5-1.3,2.4-2.6,2.6c-1.2,0.2-2.9,0.2-3.9-0.5
			c-1.4-0.9-0.8-2.6,0.3-3.5c-0.6-0.3-0.9-0.9-0.8-1.7c0.1-0.4,0.2-0.7,0.4-1c0-0.1,0.3-0.3,0.3-0.4c0-0.1-0.3-0.5-0.4-0.6
			c-0.6-1.5,0.1-3.3,1.6-3.8c1-0.4,2.1,0,3.1,0C187.1,58.8,188.6,58.4,188.6,59.4z M187,67.7c0-1.1-1.3-1.1-2.1-1.1
			c-0.8,0-1.4-0.2-2,0.4c-0.9,1-0.3,2,0.9,2.2C185,69.3,187,69.2,187,67.7z M186.3,61.5c0-2.3-3.4-2.2-3.4,0.1
			C182.9,63.7,186.3,63.7,186.3,61.5z M197,62.6c0,1-2.1,0.6-2.7,0.6c-1,0-2,0-3,0c0,1.5,0.7,2.7,2.3,2.9c0.6,0,1.2,0,1.8-0.2
			c0.3-0.1,1-0.6,1.3-0.2c0.3,0.4,0,1-0.4,1.2c-0.5,0.3-1.2,0.4-1.7,0.4c-1.4,0.2-2.9,0-3.8-1.1c-1.6-1.9-1.2-5.9,1.1-7.1
			c1.2-0.6,2.8-0.6,3.9,0.2C196.7,60,197,61.3,197,62.6z M195.5,62.2c0-1.3-0.6-2.4-2-2.4c-1.4-0.1-2.3,1.1-2.3,2.4
			C192.7,62.2,194.1,62.2,195.5,62.2z M206,66.9c0,0.5-1.3,0.3-1.4,0c-0.1-0.2,0-0.7,0-0.9c0-1.1,0-2.2,0-3.3c0-1.2-0.2-3.1-1.9-2.7
			c-0.6,0.1-1.7,0.9-2,1.5c-0.1,0.2,0,0.6,0,0.9c0,1.1,0,2.3,0,3.4c0,0.8,0.2,1.9-1.1,1.5c-0.6-0.2-0.4-1.1-0.4-1.7
			c0-1.2,0-2.3,0-3.5c0-0.6,0-1.2,0-1.8c0-0.3-0.1-0.8,0-1.1c0.1-0.4,0.6-0.5,1-0.4c0.5,0.2,0.3,0.8,0.3,1.3c1.1-1.2,3-2.1,4.5-0.9
			c0.9,0.8,1,2,1,3.1C206,63.8,206,65.4,206,66.9z M214.3,65.7c0,1.1-1.5,1.5-2.4,1.6c-1.2,0.1-2.5-0.4-3.2-1.5
			c-1.1-1.9-0.9-5.4,1.1-6.7c1-0.6,2.4-0.7,3.5-0.2c0.5,0.2,0.9,0.5,1,1.1c0,0.4,0,0.8-0.5,0.7c-0.5-0.2-0.9-0.7-1.5-0.8
			c-0.6-0.1-1.2-0.1-1.7,0.3c-1,0.7-1.1,2.1-1,3.1c0.1,1.3,0.6,2.7,2.1,2.8c0.7,0,1.2-0.2,1.8-0.6C214,65.1,214.3,64.8,214.3,65.7z
			 M219.8,67.1c-0.3,0.8-0.6,1.6-0.9,2.4c-0.1,0.3-0.1,0.5-0.4,0.7c-0.5,0.3-1.4,0.1-1.2-0.5c0.1-0.4,0.3-0.9,0.5-1.3
			c0.1-0.3,0.5-0.9,0.5-1.3c0-0.2-0.5-1-0.6-1.4c-0.7-1.9-1.4-3.8-2.1-5.7c-0.2-0.7-0.8-1.4,0.3-1.4c0.9,0,0.9,0.6,1.2,1.3
			c0.4,1.1,0.8,2.3,1.2,3.4c0.2,0.6,0.4,1.5,0.7,1.9c0.3-1,0.7-1.9,1-2.9c0.4-1.1,0.6-2.4,1.2-3.4c0.1-0.2,0.1-0.3,0.4-0.4
			c0.5-0.2,1.2-0.1,1.1,0.5c0,0.2-0.2,0.5-0.3,0.7c-0.5,1.3-1,2.7-1.4,4C220.6,65,220.2,66.1,219.8,67.1z"/>
	</g>
</g>
</svg>
