<?xml version="1.0" encoding="utf-8"?>
<!-- Generator: Adobe Illustrator 18.1.1, SVG Export Plug-In . SVG Version: 6.00 Build 0)  -->
<svg version="1.1" id="Layer_1" xmlns="http://www.w3.org/2000/svg" xmlns:xlink="http://www.w3.org/1999/xlink" x="0px" y="0px"
	 width="210px" height="90px" viewBox="0 0 210 90" enable-background="new 0 0 210 90" xml:space="preserve">
<g id="resheniya">
	
		<path fill="none" stroke="#FFC32B" stroke-width="4.2902" stroke-linecap="round" stroke-linejoin="round" stroke-miterlimit="10" d="
		M201.6,14.5c-3.4-6.7-13-6.6-18.5-3.6c-11,5.9-9.9,22.5-8.4,31.4c1.1,6.8,5.2,13.2,11.1,15s13.7-0.3,15.8-1.6"/>
	
		<path fill="none" stroke="#FFC32B" stroke-width="4.2902" stroke-linecap="round" stroke-linejoin="round" stroke-miterlimit="10" d="
		M7.6,8.9c0.3,24.7,0.6,49.3,0.8,74"/>
	
		<path fill="none" stroke="#FFC32B" stroke-width="4.2902" stroke-linecap="round" stroke-linejoin="round" stroke-miterlimit="10" d="
		M7.6,21.6c0.5-5.4,7.7-12,12.8-12.7C34.4,7.2,39,18.5,39,27.5c0,9.6-2.7,18.4-14.1,22.7c-5.1,1.9-14.9,1.3-16.9-5.9"/>
	
		<path fill="none" stroke="#FFC32B" stroke-width="4.2902" stroke-linecap="round" stroke-linejoin="round" stroke-miterlimit="10" d="
		M26.5,71.3c3.8,0.4,7.9,0.6,10.9-1.6c0.4-0.3,0.8-0.7,1.1-1.1c1.5-2,1-5-0.8-6.8s-4.4-2.5-6.9-2.5c-5.5,0.2-10.6,4.1-11.9,9.2
		c-1.3,5.1,1.4,11,6.3,13.4s11.4,0.8,14.6-3.5"/>
	
		<line fill="none" stroke="#FFC32B" stroke-width="4.2902" stroke-linecap="round" stroke-linejoin="round" stroke-miterlimit="10" x1="65.6" y1="8.9" x2="65.6" y2="81.4"/>
	
		<path fill="none" stroke="#FFC32B" stroke-width="4.2902" stroke-linecap="round" stroke-linejoin="round" stroke-miterlimit="10" d="
		M48.5,8.9l1.2,73.4c8.8,0.2,30.4,0,30.4,0c0.1-1.5,0-73.3,0-73.3"/>
	
		<path fill="none" stroke="#FFC32B" stroke-width="4.2902" stroke-linecap="round" stroke-linejoin="round" stroke-miterlimit="10" d="
		M96.4,22.6c5-0.2,9.9-0.4,14.9-0.6c2.6-3.6,1.1-9.1-2.7-11.5s-9.1-1.9-12.7,0.7s-5.7,6.9-6.1,11.3c-0.4,4.1,0.5,8.4,3.1,11.7
		c2.6,3.3,6.9,5.4,11.1,4.8s8.1-3.9,8.5-8"/>
	
		<path fill="none" stroke="#FFC32B" stroke-width="4.2902" stroke-linecap="round" stroke-linejoin="round" stroke-miterlimit="10" d="
		M89.8,45.2c0.2,9.5,0.5,29.8,0.7,39.3"/>
	
		<path fill="none" stroke="#FFC32B" stroke-width="4.2902" stroke-linecap="round" stroke-linejoin="round" stroke-miterlimit="10" d="
		M90.2,69.2c11.9-0.4,23.8-0.8,35.8-1.3"/>
	
		<path fill="none" stroke="#FFC32B" stroke-width="4.2902" stroke-linecap="round" stroke-linejoin="round" stroke-miterlimit="10" d="
		M127.1,7.8c0.4,22.4-0.4,54.3,0,76.7"/>
	
		<path fill="none" stroke="#FFC32B" stroke-width="4.2902" stroke-linecap="round" stroke-linejoin="round" stroke-miterlimit="10" d="
		M138,7.2c0.1,22.1-0.7,55.8-0.7,76.7l30.2-75c0,0-2.6,59-1.7,74.9"/>
	
		<path fill="none" stroke="#FFC32B" stroke-width="4.2902" stroke-linecap="round" stroke-linejoin="round" stroke-miterlimit="10" d="
		M165.7,83.9c4,1.5,8.7-1,11-4.6c2.3-3.6,3.3-11.4,5.3-15.1c3.8-6.8,11-6.3,11-6.3"/>
	
		<path fill="none" stroke="#FFC32B" stroke-width="4.2902" stroke-linecap="round" stroke-linejoin="round" stroke-miterlimit="10" d="
		M201.6,5.5c0.2,23.2,0.5,53.5,0.7,76.7"/>
</g>
</svg>
