<?xml version="1.0" encoding="utf-8"?>
<!-- Generator: Adobe Illustrator 18.1.1, SVG Export Plug-In . SVG Version: 6.00 Build 0)  -->
<svg version="1.1" id="Layer_1" xmlns="http://www.w3.org/2000/svg" xmlns:xlink="http://www.w3.org/1999/xlink" x="0px" y="0px"
	 width="455px" height="85px" viewBox="0 0 455 85" enable-background="new 0 0 455 85" xml:space="preserve">
<g id="technology">
	
		<line fill="none" stroke="#BAC75B" stroke-width="10.0105" stroke-linecap="square" stroke-linejoin="round" stroke-miterlimit="10" x1="37.2" y1="13.8" x2="68.5" y2="13.8"/>
	
		<line fill="none" stroke="#BAC75B" stroke-width="10.0105" stroke-linecap="square" stroke-linejoin="round" stroke-miterlimit="10" x1="37.2" y1="13.8" x2="37.2" y2="24.3"/>
	
		<line fill="none" stroke="#BAC75B" stroke-width="10.0105" stroke-linecap="square" stroke-linejoin="round" stroke-miterlimit="10" x1="68.5" y1="13.8" x2="68.5" y2="24.3"/>
	
		<line fill="none" stroke="#BAC75B" stroke-width="10.0105" stroke-linecap="square" stroke-linejoin="round" stroke-miterlimit="10" x1="80.6" y1="13.8" x2="104.5" y2="13.8"/>
	
		<line fill="none" stroke="#BAC75B" stroke-width="10.0105" stroke-linecap="square" stroke-linejoin="round" stroke-miterlimit="10" x1="105.9" y1="13.8" x2="105.9" y2="21.7"/>
	
		<line fill="none" stroke="#BAC75B" stroke-width="10.0105" stroke-linecap="square" stroke-linejoin="round" stroke-miterlimit="10" x1="52.8" y1="13.8" x2="52.8" y2="62.9"/>
	
		<line fill="none" stroke="#BAC75B" stroke-width="10.0105" stroke-linecap="square" stroke-linejoin="round" stroke-miterlimit="10" x1="87.3" y1="13.8" x2="87.3" y2="62.9"/>
	
		<line fill="none" stroke="#BAC75B" stroke-width="10.0105" stroke-linecap="square" stroke-linejoin="round" stroke-miterlimit="10" x1="44.5" y1="62.9" x2="61.2" y2="62.9"/>
	
		<line fill="none" stroke="#BAC75B" stroke-width="10.0105" stroke-linecap="square" stroke-linejoin="round" stroke-miterlimit="10" x1="10.6" y1="38.4" x2="23.2" y2="38.4"/>
	
		<line fill="none" stroke="#BAC75B" stroke-width="10.0105" stroke-linecap="square" stroke-linejoin="round" stroke-miterlimit="10" x1="80.6" y1="62.9" x2="104.5" y2="62.9"/>
	
		<line fill="none" stroke="#BAC75B" stroke-width="10.0105" stroke-linecap="square" stroke-linejoin="round" stroke-miterlimit="10" x1="105.9" y1="62.9" x2="105.9" y2="51.6"/>
	
		<line fill="none" stroke="#BAC75B" stroke-width="10.0105" stroke-linecap="square" stroke-linejoin="round" stroke-miterlimit="10" x1="97.9" y1="38.4" x2="87.3" y2="38.4"/>
	
		<line fill="none" stroke="#BAC75B" stroke-width="10.0105" stroke-linecap="square" stroke-linejoin="round" stroke-miterlimit="10" x1="124.5" y1="60.9" x2="146" y2="15.9"/>
	
		<line fill="none" stroke="#BAC75B" stroke-width="10.0105" stroke-linecap="square" stroke-linejoin="round" stroke-miterlimit="10" x1="125.2" y1="17.3" x2="145.3" y2="59.5"/>
	
		<line fill="none" stroke="#BAC75B" stroke-width="10.0105" stroke-linecap="square" stroke-linejoin="round" stroke-miterlimit="10" x1="141" y1="62.9" x2="151.9" y2="62.9"/>
	
		<line fill="none" stroke="#BAC75B" stroke-width="10.0105" stroke-linecap="square" stroke-linejoin="round" stroke-miterlimit="10" x1="141" y1="13.8" x2="151.9" y2="13.8"/>
	
		<line fill="none" stroke="#BAC75B" stroke-width="10.0105" stroke-linecap="square" stroke-linejoin="round" stroke-miterlimit="10" x1="118.6" y1="62.9" x2="129.5" y2="62.9"/>
	
		<line fill="none" stroke="#BAC75B" stroke-width="10.0105" stroke-linecap="square" stroke-linejoin="round" stroke-miterlimit="10" x1="118.6" y1="13.8" x2="129.5" y2="13.8"/>
	
		<line fill="none" stroke="#BAC75B" stroke-width="10.0105" stroke-linecap="square" stroke-linejoin="round" stroke-miterlimit="10" x1="164.4" y1="13.8" x2="177" y2="13.8"/>
	
		<line fill="none" stroke="#BAC75B" stroke-width="10.0105" stroke-linecap="square" stroke-linejoin="round" stroke-miterlimit="10" x1="170.8" y1="13.8" x2="170.8" y2="62.9"/>
	
		<line fill="none" stroke="#BAC75B" stroke-width="10.0105" stroke-linecap="square" stroke-linejoin="round" stroke-miterlimit="10" x1="164.6" y1="62.9" x2="177" y2="62.9"/>
	
		<line fill="none" stroke="#BAC75B" stroke-width="10.0105" stroke-linecap="square" stroke-linejoin="round" stroke-miterlimit="10" x1="188.5" y1="13.8" x2="201.2" y2="13.8"/>
	
		<line fill="none" stroke="#BAC75B" stroke-width="10.0105" stroke-linecap="square" stroke-linejoin="round" stroke-miterlimit="10" x1="195" y1="13.8" x2="195" y2="62.9"/>
	
		<line fill="none" stroke="#BAC75B" stroke-width="10.0105" stroke-linecap="square" stroke-linejoin="round" stroke-miterlimit="10" x1="188.8" y1="62.9" x2="201.2" y2="62.9"/>
	
		<line fill="none" stroke="#BAC75B" stroke-width="10.0105" stroke-linecap="square" stroke-linejoin="round" stroke-miterlimit="10" x1="170.8" y1="38.4" x2="194.9" y2="38.4"/>
	
		<path fill="none" stroke="#BAC75B" stroke-width="10.0105" stroke-linecap="square" stroke-linejoin="round" stroke-miterlimit="10" d="
		M212.8,22.8c0-6.1,4.9-11,11-11s11,4.9,11,11v30.3c0,6.1-4.9,11-11,11s-11-4.9-11-11V22.8z"/>
	
		<line fill="none" stroke="#BAC75B" stroke-width="10.0105" stroke-linecap="square" stroke-linejoin="round" stroke-miterlimit="10" x1="318.9" y1="13.8" x2="345.9" y2="13.8"/>
	
		<line fill="none" stroke="#BAC75B" stroke-width="10.0105" stroke-linecap="square" stroke-linejoin="round" stroke-miterlimit="10" x1="345.9" y1="13.8" x2="345.9" y2="24.3"/>
	
		<line fill="none" stroke="#BAC75B" stroke-width="10.0105" stroke-linecap="square" stroke-linejoin="round" stroke-miterlimit="10" x1="327.2" y1="13.8" x2="327.2" y2="62.9"/>
	
		<line fill="none" stroke="#BAC75B" stroke-width="10.0105" stroke-linecap="square" stroke-linejoin="round" stroke-miterlimit="10" x1="318.9" y1="62.9" x2="335.6" y2="62.9"/>
	
		<line fill="none" stroke="#BAC75B" stroke-width="10.0105" stroke-linecap="square" stroke-linejoin="round" stroke-miterlimit="10" x1="358.5" y1="13.8" x2="371.2" y2="13.8"/>
	
		<line fill="none" stroke="#BAC75B" stroke-width="10.0105" stroke-linecap="square" stroke-linejoin="round" stroke-miterlimit="10" x1="365" y1="13.8" x2="365" y2="62.9"/>
	
		<line fill="none" stroke="#BAC75B" stroke-width="10.0105" stroke-linecap="square" stroke-linejoin="round" stroke-miterlimit="10" x1="358.8" y1="62.9" x2="371.2" y2="62.9"/>
	
		<line fill="none" stroke="#BAC75B" stroke-width="10.0105" stroke-linecap="square" stroke-linejoin="round" stroke-miterlimit="10" x1="382.7" y1="13.8" x2="395.3" y2="13.8"/>
	
		<line fill="none" stroke="#BAC75B" stroke-width="10.0105" stroke-linecap="square" stroke-linejoin="round" stroke-miterlimit="10" x1="389.2" y1="13.8" x2="389.2" y2="62.9"/>
	
		<line fill="none" stroke="#BAC75B" stroke-width="10.0105" stroke-linecap="square" stroke-linejoin="round" stroke-miterlimit="10" x1="383" y1="62.9" x2="395.3" y2="62.9"/>
	
		<line fill="none" stroke="#BAC75B" stroke-width="10.0105" stroke-linecap="square" stroke-linejoin="round" stroke-miterlimit="10" x1="368.5" y1="46.9" x2="385.5" y2="29.9"/>
	
		<line fill="none" stroke="#BAC75B" stroke-width="10.0105" stroke-linecap="square" stroke-linejoin="round" stroke-miterlimit="10" x1="407.6" y1="13.8" x2="420.2" y2="13.8"/>
	
		<line fill="none" stroke="#BAC75B" stroke-width="10.0105" stroke-linecap="square" stroke-linejoin="round" stroke-miterlimit="10" x1="414" y1="13.8" x2="414" y2="62.9"/>
	
		<line fill="none" stroke="#BAC75B" stroke-width="10.0105" stroke-linecap="square" stroke-linejoin="round" stroke-miterlimit="10" x1="407.9" y1="62.9" x2="420.2" y2="62.9"/>
	
		<line fill="none" stroke="#BAC75B" stroke-width="10.0105" stroke-linecap="square" stroke-linejoin="round" stroke-miterlimit="10" x1="431.8" y1="13.8" x2="444.4" y2="13.8"/>
	
		<line fill="none" stroke="#BAC75B" stroke-width="10.0105" stroke-linecap="square" stroke-linejoin="round" stroke-miterlimit="10" x1="438.2" y1="13.8" x2="438.2" y2="62.9"/>
	
		<line fill="none" stroke="#BAC75B" stroke-width="10.0105" stroke-linecap="square" stroke-linejoin="round" stroke-miterlimit="10" x1="432" y1="62.9" x2="444.4" y2="62.9"/>
	
		<line fill="none" stroke="#BAC75B" stroke-width="10.0105" stroke-linecap="square" stroke-linejoin="round" stroke-miterlimit="10" x1="417.6" y1="46.9" x2="434.6" y2="29.9"/>
	
		<path fill="none" stroke="#BAC75B" stroke-width="10.0105" stroke-linecap="square" stroke-linejoin="round" stroke-miterlimit="10" d="
		M285.4,24.6c0-6.1,4.9-11,11-11s11,4.9,11,11V54c0,6.1-4.9,11-11,11s-11-4.9-11-11V24.6z"/>
	<path fill="none" stroke="#BAC75B" stroke-width="10.0105" stroke-linejoin="round" stroke-miterlimit="10" d="M222.7,79.1
		c17.7,0,27.4-13.1,27.4-26.4V13.8"/>
	
		<line fill="none" stroke="#BAC75B" stroke-width="10.0105" stroke-linecap="square" stroke-linejoin="round" stroke-miterlimit="10" x1="268.4" y1="13.8" x2="268.4" y2="62.9"/>
	
		<line fill="none" stroke="#BAC75B" stroke-width="10.0105" stroke-linecap="square" stroke-linejoin="round" stroke-miterlimit="10" x1="262.4" y1="62.9" x2="274.4" y2="62.9"/>
	
		<line fill="none" stroke="#BAC75B" stroke-width="10.0105" stroke-linecap="square" stroke-linejoin="round" stroke-miterlimit="10" x1="246.4" y1="13.8" x2="274.4" y2="13.8"/>
</g>
</svg>
