<?xml version="1.0" encoding="utf-8"?>
<!-- Generator: Adobe Illustrator 18.1.1, SVG Export Plug-In . SVG Version: 6.00 Build 0)  -->
<svg version="1.1" id="Layer_1" xmlns="http://www.w3.org/2000/svg" xmlns:xlink="http://www.w3.org/1999/xlink" x="0px" y="0px"
	 width="195px" height="185px" viewBox="0 0 195 185" enable-background="new 0 0 195 185" xml:space="preserve">
<g id="zadach">
	
		<path fill="none" stroke="#C72838" stroke-width="5.7203" stroke-linecap="round" stroke-linejoin="round" stroke-miterlimit="10" d="
		M37.7,9v31c0,0,1.8-31.5,11.4-32.2c5.6-0.4,8.7,6.7,9.1,12.3c1,13.3-0.4,73.5-0.4,73.5c0.1,6.3-1.6,19.9-6.9,23.2
		c-1,0.6-6.8,3.4-7.4,1c-0.7-2.8,5-1.3,5.7-1.1c7.2,1.8,11.4,4.7,11.4,15.8c0,18.4,0.2,34.2-3,39.7c-3.2,5.5-11.6,5.5-14.6,1
		c-5-7.4-3.5-16.8-3.4-31.2"/>
	
		<path fill="none" stroke="#C72838" stroke-width="5.7203" stroke-linecap="round" stroke-linejoin="round" stroke-miterlimit="10" d="
		M97.9,175.7c-5.6-0.7-7.3-6.9-7.6-12.7c-0.4-8.6,1.1-58.2,0.8-74.9c-0.3-20.2,0.1-38,0.5-59.1c0.1-6.6,1.3-18.9-4.9-21.5
		c-3.7-1.6-8.6,0.9-10.4,4c-5.1,8.5-4.1,31.8-4.1,30.6V10.6"/>
	
		<path fill="none" stroke="#C72838" stroke-width="5.7203" stroke-linecap="round" stroke-linejoin="round" stroke-miterlimit="10" d="
		M91.1,105.6c-2.2-8.5-7.9-9.8-11.8-7.9c-5.8,2.8-8.1,9.1-8.6,15.9c-0.9,10.8-1.8,45.1,1.5,56c3.2,10.5,14,7.7,18.1-7.8"/>
	
		<path fill="none" stroke="#C72838" stroke-width="5.7203" stroke-linecap="round" stroke-linejoin="round" stroke-miterlimit="10" d="
		M164.9,175.7c-5.6-0.7-7.3-6.9-7.6-12.7c-0.4-8.6,1.1-58.2,0.8-74.9c-0.3-20.2,0.1-38,0.5-59.1c0.1-6.6,1.3-18.9-4.9-21.5
		c-3.7-1.6-8.6,0.9-10.4,4c-5.1,8.5-4.1,31.8-4.1,30.6V9.8"/>
	
		<path fill="none" stroke="#C72838" stroke-width="5.7203" stroke-linecap="round" stroke-linejoin="round" stroke-miterlimit="10" d="
		M158,105.6c-2.2-8.5-7.9-9.8-11.8-7.9c-5.8,2.8-8.1,9.1-8.6,15.9c-0.9,10.8-1.8,45.1,1.5,56c3.2,10.5,14,7.7,18.1-7.8"/>
	
		<path fill="none" stroke="#C72838" stroke-width="5.7203" stroke-linecap="round" stroke-linejoin="round" stroke-miterlimit="10" d="
		M128.2,108.7c-3-13-11.9-12.8-15.8-11c-5.8,2.8-8.1,9.1-8.6,15.9c-0.9,10.8-1.8,45.1,1.5,56c3.2,10.5,15.4,9.6,19.6-6"/>
	
		<path fill="none" stroke="#C72838" stroke-width="5.7203" stroke-linecap="round" stroke-linejoin="round" stroke-miterlimit="10" d="
		M100.3,8.6c0,9.9,4.9,14.6,11.5,17.3c15.9,6.5,16.1,17.1,16.2,27.6c0.1,16.8,1.5,92.6-3.1,110.1"/>
	
		<path fill="none" stroke="#C72838" stroke-width="5.7203" stroke-linecap="round" stroke-linejoin="round" stroke-miterlimit="10" d="
		M168.1,8.1c0,21.5-1,42.5-1,64c0,7.2,0.9,18,5.6,23.2c4.1,4.6,13.9,0.6,13.9-9.6"/>
	
		<line fill="none" stroke="#C72838" stroke-width="5.7203" stroke-linecap="round" stroke-linejoin="round" stroke-miterlimit="10" x1="186.5" y1="8.1" x2="186.5" y2="175.8"/>
	
		<path fill="none" stroke="#C72838" stroke-width="5.7203" stroke-linecap="round" stroke-linejoin="round" stroke-miterlimit="10" d="
		M6.9,117.9c0.3,0,0.5,0,0.8,0l17.4-0.4"/>
</g>
</svg>
